<svg width="134" height="23" viewBox="0 0 134 23" fill="none" xmlns="http://www.w3.org/2000/svg">
<path d="M14.708 5.282C16.052 5.282 17.13 5.716 17.942 6.584C18.768 7.438 19.181 8.677 19.181 10.301V17H17.27V10.469C17.27 9.335 16.99 8.467 16.43 7.865C15.884 7.263 15.128 6.962 14.162 6.962C13.154 6.962 12.342 7.298 11.726 7.97C11.124 8.628 10.823 9.601 10.823 10.889V17H8.912V10.469C8.912 9.335 8.632 8.467 8.072 7.865C7.512 7.263 6.756 6.962 5.804 6.962C4.782 6.962 3.963 7.298 3.347 7.97C2.745 8.628 2.444 9.601 2.444 10.889V17H0.533V5.471H2.444V8.096C2.724 7.186 3.221 6.493 3.935 6.017C4.663 5.527 5.496 5.282 6.434 5.282C7.414 5.282 8.261 5.534 8.975 6.038C9.703 6.528 10.221 7.256 10.529 8.222C10.851 7.284 11.39 6.563 12.146 6.059C12.902 5.541 13.756 5.282 14.708 5.282ZM32.7532 10.595C32.7532 11.001 32.7252 11.351 32.6692 11.645H23.4502C23.4922 12.961 23.8632 13.948 24.5632 14.606C25.2772 15.264 26.1452 15.593 27.1672 15.593C28.0912 15.593 28.8612 15.362 29.4772 14.9C30.1072 14.424 30.4922 13.794 30.6322 13.01H32.6692C32.5292 13.808 32.2142 14.522 31.7242 15.152C31.2482 15.782 30.6252 16.272 29.8552 16.622C29.0852 16.972 28.2172 17.147 27.2512 17.147C26.1452 17.147 25.1652 16.909 24.3112 16.433C23.4572 15.957 22.7852 15.278 22.2952 14.396C21.8192 13.5 21.5812 12.45 21.5812 11.246C21.5812 10.042 21.8192 8.992 22.2952 8.096C22.7852 7.2 23.4572 6.514 24.3112 6.038C25.1652 5.562 26.1452 5.324 27.2512 5.324C28.3712 5.324 29.3442 5.562 30.1702 6.038C31.0102 6.514 31.6472 7.151 32.0812 7.949C32.5292 8.747 32.7532 9.629 32.7532 10.595ZM30.8212 10.721C30.8632 9.867 30.7232 9.153 30.4012 8.579C30.0792 8.005 29.6382 7.578 29.0782 7.298C28.5182 7.018 27.9092 6.878 27.2512 6.878C26.2012 6.878 25.3192 7.207 24.6052 7.865C23.8912 8.509 23.5062 9.461 23.4502 10.721H30.8212ZM39.9777 5.324C41.0977 5.324 42.0427 5.604 42.8127 6.164C43.5967 6.724 44.1427 7.473 44.4507 8.411V1.46H46.3617V17H44.4507V14.06C44.1427 14.998 43.5967 15.747 42.8127 16.307C42.0427 16.867 41.0977 17.147 39.9777 17.147C38.9557 17.147 38.0457 16.909 37.2477 16.433C36.4497 15.957 35.8197 15.278 35.3577 14.396C34.9097 13.5 34.6857 12.45 34.6857 11.246C34.6857 10.042 34.9097 8.992 35.3577 8.096C35.8197 7.2 36.4497 6.514 37.2477 6.038C38.0457 5.562 38.9557 5.324 39.9777 5.324ZM40.5237 7.025C39.3477 7.025 38.4027 7.403 37.6887 8.159C36.9887 8.901 36.6387 9.93 36.6387 11.246C36.6387 12.562 36.9887 13.598 37.6887 14.354C38.4027 15.096 39.3477 15.467 40.5237 15.467C41.2797 15.467 41.9517 15.292 42.5397 14.942C43.1417 14.592 43.6107 14.102 43.9467 13.472C44.2827 12.828 44.4507 12.086 44.4507 11.246C44.4507 10.406 44.2827 9.664 43.9467 9.02C43.6107 8.376 43.1417 7.886 42.5397 7.55C41.9517 7.2 41.2797 7.025 40.5237 7.025ZM49.0671 2.09C49.0671 1.74 49.1861 1.46 49.4241 1.25C49.6621 1.026 49.9771 0.913999 50.3691 0.913999C50.7611 0.913999 51.0761 1.026 51.3141 1.25C51.5521 1.46 51.6711 1.74 51.6711 2.09C51.6711 2.44 51.5521 2.727 51.3141 2.951C51.0761 3.161 50.7611 3.266 50.3691 3.266C49.9771 3.266 49.6621 3.161 49.4241 2.951C49.1861 2.727 49.0671 2.44 49.0671 2.09ZM51.3141 5.471V17H49.4031V5.471H51.3141ZM59.1115 5.324C60.2315 5.324 61.1765 5.604 61.9465 6.164C62.7305 6.724 63.2765 7.473 63.5845 8.411V5.471H65.4955V17H63.5845V14.06C63.2765 14.998 62.7305 15.747 61.9465 16.307C61.1765 16.867 60.2315 17.147 59.1115 17.147C58.0895 17.147 57.1795 16.909 56.3815 16.433C55.5835 15.957 54.9535 15.278 54.4915 14.396C54.0435 13.5 53.8195 12.45 53.8195 11.246C53.8195 10.042 54.0435 8.992 54.4915 8.096C54.9535 7.2 55.5835 6.514 56.3815 6.038C57.1795 5.562 58.0895 5.324 59.1115 5.324ZM59.6575 7.025C58.4815 7.025 57.5365 7.403 56.8225 8.159C56.1225 8.901 55.7725 9.93 55.7725 11.246C55.7725 12.562 56.1225 13.598 56.8225 14.354C57.5365 15.096 58.4815 15.467 59.6575 15.467C60.4135 15.467 61.0855 15.292 61.6735 14.942C62.2755 14.592 62.7445 14.102 63.0805 13.472C63.4165 12.828 63.5845 12.086 63.5845 11.246C63.5845 10.406 63.4165 9.664 63.0805 9.02C62.7445 8.376 62.2755 7.886 61.6735 7.55C61.0855 7.2 60.4135 7.025 59.6575 7.025Z" fill="white"/>
<path d="M72.5059 5.135C73.9899 5.135 75.1729 5.506 76.0549 6.248C76.9509 6.99 77.5109 7.97 77.7349 9.188H74.3749C74.2769 8.712 74.0529 8.341 73.7029 8.075C73.3669 7.795 72.9399 7.655 72.4219 7.655C72.0159 7.655 71.7079 7.746 71.4979 7.928C71.2879 8.096 71.1829 8.341 71.1829 8.663C71.1829 9.027 71.3719 9.3 71.7499 9.482C72.1419 9.664 72.7509 9.846 73.5769 10.028C74.4729 10.238 75.2079 10.455 75.7819 10.679C76.3559 10.889 76.8529 11.239 77.2729 11.729C77.6929 12.219 77.9029 12.877 77.9029 13.703C77.9029 14.375 77.7209 14.97 77.3569 15.488C76.9929 16.006 76.4679 16.412 75.7819 16.706C75.0959 17 74.2839 17.147 73.3459 17.147C71.7639 17.147 70.4969 16.797 69.5449 16.097C68.5929 15.397 68.0119 14.396 67.8019 13.094H71.2669C71.3229 13.598 71.5329 13.983 71.8969 14.249C72.2749 14.515 72.7579 14.648 73.3459 14.648C73.7519 14.648 74.0599 14.557 74.2699 14.375C74.4799 14.179 74.5849 13.927 74.5849 13.619C74.5849 13.213 74.3889 12.926 73.9969 12.758C73.6189 12.576 72.9959 12.387 72.1279 12.191C71.2599 12.009 70.5459 11.813 69.9859 11.603C69.4259 11.393 68.9429 11.057 68.5369 10.595C68.1309 10.119 67.9279 9.475 67.9279 8.663C67.9279 7.613 68.3269 6.766 69.1249 6.122C69.9229 5.464 71.0499 5.135 72.5059 5.135ZM84.3433 5.135C85.2393 5.135 86.0093 5.338 86.6533 5.744C87.2973 6.15 87.7733 6.703 88.0813 7.403V5.282H91.6513V17H88.0813V14.879C87.7733 15.579 87.2973 16.132 86.6533 16.538C86.0093 16.944 85.2393 17.147 84.3433 17.147C83.3773 17.147 82.5093 16.909 81.7393 16.433C80.9833 15.943 80.3813 15.243 79.9333 14.333C79.4993 13.423 79.2823 12.359 79.2823 11.141C79.2823 9.909 79.4993 8.845 79.9333 7.949C80.3813 7.039 80.9833 6.346 81.7393 5.87C82.5093 5.38 83.3773 5.135 84.3433 5.135ZM85.4983 8.285C84.7283 8.285 84.1053 8.537 83.6293 9.041C83.1673 9.545 82.9363 10.245 82.9363 11.141C82.9363 12.037 83.1673 12.737 83.6293 13.241C84.1053 13.745 84.7283 13.997 85.4983 13.997C86.2543 13.997 86.8703 13.738 87.3463 13.22C87.8363 12.702 88.0813 12.009 88.0813 11.141C88.0813 10.259 87.8363 9.566 87.3463 9.062C86.8703 8.544 86.2543 8.285 85.4983 8.285ZM101.432 5.135C102.398 5.135 103.259 5.38 104.015 5.87C104.785 6.346 105.387 7.039 105.821 7.949C106.269 8.845 106.493 9.909 106.493 11.141C106.493 12.359 106.269 13.423 105.821 14.333C105.387 15.243 104.785 15.943 104.015 16.433C103.259 16.909 102.398 17.147 101.432 17.147C100.536 17.147 99.7658 16.944 99.1218 16.538C98.4778 16.132 98.0088 15.579 97.7148 14.879V17H94.1238V1.46H97.7148V7.403C98.0088 6.703 98.4778 6.15 99.1218 5.744C99.7658 5.338 100.536 5.135 101.432 5.135ZM100.277 8.285C99.5208 8.285 98.8978 8.544 98.4078 9.062C97.9318 9.566 97.6938 10.259 97.6938 11.141C97.6938 12.009 97.9318 12.702 98.4078 13.22C98.8978 13.738 99.5208 13.997 100.277 13.997C101.047 13.997 101.663 13.745 102.125 13.241C102.601 12.737 102.839 12.037 102.839 11.141C102.839 10.245 102.601 9.545 102.125 9.041C101.663 8.537 101.047 8.285 100.277 8.285ZM113.837 5.135C114.999 5.135 116.035 5.38 116.945 5.87C117.869 6.346 118.59 7.039 119.108 7.949C119.64 8.859 119.906 9.923 119.906 11.141C119.906 12.359 119.64 13.423 119.108 14.333C118.59 15.243 117.869 15.943 116.945 16.433C116.035 16.909 114.999 17.147 113.837 17.147C112.675 17.147 111.632 16.909 110.708 16.433C109.784 15.943 109.056 15.243 108.524 14.333C108.006 13.423 107.747 12.359 107.747 11.141C107.747 9.923 108.006 8.859 108.524 7.949C109.056 7.039 109.784 6.346 110.708 5.87C111.632 5.38 112.675 5.135 113.837 5.135ZM113.837 8.243C113.151 8.243 112.57 8.495 112.094 8.999C111.632 9.489 111.401 10.203 111.401 11.141C111.401 12.079 111.632 12.793 112.094 13.283C112.57 13.773 113.151 14.018 113.837 14.018C114.523 14.018 115.097 13.773 115.559 13.283C116.021 12.793 116.252 12.079 116.252 11.141C116.252 10.203 116.021 9.489 115.559 8.999C115.097 8.495 114.523 8.243 113.837 8.243ZM126.472 5.177C128.04 5.177 129.202 5.779 129.958 6.983V5.282H133.528V22.586H129.958V15.11C129.146 16.454 127.984 17.126 126.472 17.126C125.492 17.126 124.596 16.881 123.784 16.391C122.986 15.887 122.349 15.187 121.873 14.291C121.397 13.395 121.159 12.366 121.159 11.204C121.159 10.042 121.397 9.006 121.873 8.096C122.349 7.172 122.993 6.458 123.805 5.954C124.617 5.436 125.506 5.177 126.472 5.177ZM127.375 8.306C126.675 8.306 126.073 8.558 125.569 9.062C125.065 9.552 124.813 10.266 124.813 11.204C124.813 12.128 125.058 12.828 125.548 13.304C126.052 13.766 126.661 13.997 127.375 13.997C128.075 13.997 128.677 13.752 129.181 13.262C129.699 12.758 129.958 12.051 129.958 11.141C129.958 10.231 129.699 9.531 129.181 9.041C128.677 8.551 128.075 8.306 127.375 8.306Z" fill="#FF6300"/>
</svg>
